<svg width="160" height="160" viewBox="0 0 160 160" xmlns="http://www.w3.org/2000/svg">
  <defs>
    <radialGradient id="bg" cx="50%" cy="0%" r="100%">
      <stop offset="0%" stop-color="#3b0764"/>
      <stop offset="40%" stop-color="#111827"/>
      <stop offset="100%" stop-color="#020617"/>
    </radialGradient>
    <linearGradient id="mane" x1="0%" y1="0%" x2="100%" y2="100%">
      <stop offset="0%" stop-color="#f97316"/>
      <stop offset="40%" stop-color="#eab308"/>
      <stop offset="80%" stop-color="#22c55e"/>
      <stop offset="100%" stop-color="#6366f1"/>
    </linearGradient>
    <linearGradient id="eyes" x1="0%" y1="0%" x2="100%" y2="0%">
      <stop offset="0%" stop-color="#22c55e"/>
      <stop offset="100%" stop-color="#a855f7"/>
    </linearGradient>
  </defs>
  <rect x="0" y="0" width="160" height="160" rx="40" fill="url(#bg)"/>
  <circle cx="80" cy="80" r="52" fill="none" stroke="url(#mane)" stroke-width="10" stroke-linecap="round" stroke-dasharray="12 10"/>
  <path d="M55 55 Q80 30 105 55 L105 95 Q80 120 55 95 Z" fill="#020617" stroke="#facc15" stroke-width="2.2"/>
  <path d="M72 88 Q80 94 88 88 L86 100 Q80 106 74 100 Z" fill="#0b1120" stroke="#f97316" stroke-width="1.5"/>
  <path d="M77 96 Q80 99 83 96" fill="none" stroke="#f97316" stroke-width="1.4" stroke-linecap="round"/>
  <ellipse cx="68" cy="75" rx="5" ry="4" fill="#020617" stroke="url(#eyes)" stroke-width="2"/>
  <ellipse cx="92" cy="75" rx="5" ry="4" fill="#020617" stroke="url(#eyes)" stroke-width="2"/>
  <circle cx="68" cy="75" r="1.4" fill="#facc15"/>
  <circle cx="92" cy="75" r="1.4" fill="#facc15"/>
  <path d="M45 120 L60 110 L55 130 L70 120" fill="none" stroke="#22c55e" stroke-width="1.6" stroke-linecap="round"/>
  <path d="M115 120 L100 110 L105 130 L90 120" fill="none" stroke="#6366f1" stroke-width="1.6" stroke-linecap="round"/>
</svg>
